<?xml version="1.0" encoding="utf-8"?>
<!-- Generator: Adobe Illustrator 23.0.0, SVG Export Plug-In . SVG Version: 6.00 Build 0)  -->
<svg version="1.1" id="Layer_1" xmlns="http://www.w3.org/2000/svg" xmlns:xlink="http://www.w3.org/1999/xlink" x="0px" y="0px"
	 viewBox="0 0 595.28 841.89" style="enable-background:new 0 0 595.28 841.89;" xml:space="preserve">
<style type="text/css">
	.st0{fill:#1481EF;}
	.st1{fill:#F15A29;}
</style>
<g>
	<path class="st0" d="M101.19,373.63l-0.85,0.36l-0.63-0.18l-1.84-0.27l-2.56-0.31h-2.96l-3.59,0.22l-3.86,0.54l-3.46,0.09
		l-3.05,0.63l-2.47,0.45l-2.7,0.85l-2.02,0.54L69.25,377l-0.63,0.76l-1.21,0.72l-1.57,0.85L64,379.88l-2.47,0.36l-2.47,0.09
		l-2.2-0.72l-1.3-0.85l-1.3-0.9l-1.17-1.03l-0.18-1.26l0.18-1.48l0.81-1.12l0.76-0.72l1.17-0.36l1.84-0.94l1.75-0.45l2.79-0.27h3.01
		l3.86,0.27h3.86l4.13-0.27l3.41-0.09l1.48-0.27l1.93,0.18l2.11-0.36l2.29,0.45l2.11-0.09l1.93,0.18l3.68,0.45h1.75l2.96,1.48
		l0.45,0.81V373.63z M66.24,363.88l-0.58,0.72l-0.72-0.72l0.45-0.94l0.85,0.27V363.88z M77.56,381.09l-0.49,0.81l-0.36,1.84v1.66
		l-0.27,2.11v1.84l-0.18,1.48l-0.36,1.26l0.36,1.03l-0.63,1.17l-0.13,1.57v1.39l-0.36,1.75l-0.18,2.02l-0.18,1.57l0.18,1.84
		l-0.36,2.11l-0.09,2.02v1.66l0.09,2.11l0.18,2.29l-0.18,2.2v2.38l-0.27,2.07l0.18,1.93v2.11l0.09,1.93l-0.09,1.93l-0.63,0.63
		l-0.18-0.45l-0.22-0.85l0.22-1.44l0.09-1.75l-0.4-1.03l0.09-1.75l-0.27-0.99l-0.27-1.39v-4.58l-0.36-1.48v-1.66l-0.18-1.75v-2.11
		l-0.18-1.75v-1.84l0.18-1.84v-2.47l-0.18-2.52v-3.95l-0.09-1.44l0.36-1.39v-1.75l-0.09-2.2l-0.76-2.11l-0.45-1.93l-0.72-1.48
		l-0.18-1.48v-1.26l0.63-1.03l1.12-1.12l1.44-0.18l1.12,0.4l1.3,1.08l0.99,1.21L77.56,381.09z"/>
	<path class="st0" d="M117.86,416.04l-0.18,1.57l-0.31,1.44l-0.63,1.12l-0.45,1.21l-0.76,1.26l-1.08,0.76l-0.72,1.08l-1.48,0.76
		l-1.48,0.54l-1.75,0.18l-1.75,0.27l-1.66,0.18l-1.75-0.36l-1.44-0.27l-1.39-0.54l-1.12-0.49l-1.17-1.08l-1.03-1.21l-1.08-0.63
		l-0.76-1.21l-0.54-1.26l-0.63-1.21l-0.09-1.39l-0.13-1.75l0.22-1.26l0.45-1.75v-1.75l0.54-1.75l0.94-2.79l0.99-0.9l0.18-1.03
		l0.94-0.72l1.17-0.81l1.12-0.67l1.66-0.36l1.08,0.18l0.94,0.54l0.54,1.03l0.18,0.9l-0.09,1.21l-0.72,0.94l-0.85,1.08l-0.54,1.21
		l-0.09,1.17l-0.9,0.85l-0.49,1.66l-0.45,1.08l-0.09,1.66v1.39l0.27,1.48l0.63,1.17l0.76,0.94l0.99,0.72l0.94,0.94l1.17,0.36
		l1.48,0.09l0.18,0.27l1.66-0.09l1.48-0.27l1.66-1.12l0.99-0.99l0.76-1.48l0.27-1.39v-1.84l-0.45-1.08l-0.76-1.39l-0.81-1.12
		l-1.03-0.99l-1.08-0.85l-0.85-0.63l-0.63-0.54l-0.18-0.94l0.36-0.63h0.85l0.81,0.54l1.12,0.45l0.72,0.58l1.48,0.99l0.99,0.76
		l0.67,0.99l0.81,1.21l0.72,1.08l0.4,1.03L117.86,416.04z M108.65,406.02l-0.54,0.18l-0.58-0.49l0.36-0.36l0.58,0.09L108.65,406.02z
		"/>
	<path class="st0" d="M151.23,424.66l-0.45,0.76l-0.58,0.36l-0.72,0.09l-0.63-0.18l-0.4-0.45l-0.72-0.85l-0.9-0.72l-0.67-0.67
		l-1.17-2.56l-0.18-1.08l-0.31-0.94l-0.27-0.72h-0.36l-0.45,0.54l-0.54,0.9l-0.31,0.85l-0.27,0.9l-0.45,0.94l-0.54,0.81l-0.67,0.76
		l-0.72,0.99l-1.21,0.67l-0.9,0.45l-1.75,0.45l-1.39,0.09l-1.08-0.18l-1.21-0.63l-1.48-0.4l-0.99-0.81l-1.21-0.63l-0.72-0.76
		l-1.03-0.9l-0.36-1.39l-0.54-1.48l-0.36-1.44l-0.4-1.75l-0.36-1.03l0.27-1.39l-0.45-1.66l-0.09-0.9l-0.09-1.39l-0.18-1.17
		l-0.18-0.85l0.09-1.17l0.27-0.94l0.9-0.99l1.21-0.49l0.94-0.09l1.17,0.18l1.12,0.58l0.81,0.63l0.76,1.12l0.45,0.99l0.36,1.39
		l-0.18,0.99l-0.63,0.85l-0.58,0.99l-0.09,1.3l-0.45,1.48v1.26l0.09,1.75l0.45,1.84l0.67,0.85l0.72,1.17l1.3,0.94l1.26,0.63
		l1.57,0.45l1.21-0.45l1.17-0.63l0.94-0.94l0.9-1.44l0.67-1.21l0.54-1.21l0.45-1.26l0.36-1.66l0.22-1.93l-0.4-1.66l-0.27-1.48
		l-0.27-0.63l0.18-1.21l-0.09-1.17l0.18-0.94l0.27-0.81l0.18-1.21l0.49-0.72l0.54-0.36l0.81,0.27l0.4,0.72l0.09,0.63l0.36,0.94
		l-0.09,0.9v1.39l-0.36,1.39v0.63l-0.4,0.54l0.22,1.12l0.18,1.3l0.45,1.17l0.09,1.84l0.45,1.21l0.36,1.57l0.18,1.26l0.49,1.39
		l0.54,1.03l0.72,0.9l0.76,0.81l2.02,0.94L151.23,424.66z M135.78,412.98l-0.18,2.11l-1.3,1.3l-1.08-1.03l-0.76-1.53l0.09-1.66
		l-0.45-0.94l0.54-0.54l0.94,0.09l0.9,0.54L135.78,412.98z"/>
	<path class="st0" d="M174.59,404.99l-0.63,0.18l-0.85-0.09h-0.81l-1.21,0.18l-1.48,0.85l-0.72,0.99l-1.48,0.63l-0.63,0.76
		l-1.21,1.08l-0.54,1.12l-0.36,1.03v1.35l-0.36,1.03l-0.4,1.08l-0.36,1.21l-0.09,1.3v2.92l-0.09,1.3l-0.36,1.3l-0.09,1.26
		l-0.18,1.39v1.3l-0.67,1.35l-0.81,0.76l-1.21,0.36l-0.81,0.18l-0.72-0.18l-0.67-0.72l-0.36-0.85l-0.36-0.9l0.09-1.03l-0.09-1.48
		v-2.11l-0.09-0.99l0.09-1.12l0.09-1.48v-1.26l0.18-1.48l0.09-1.48l-0.09-1.66v-1.35l-0.18-1.12l-0.09-1.03l-0.76-1.26l-0.63-1.03
		l-0.36-1.08l-0.09-1.21l0.18-1.12l0.45-0.81l0.76-0.54l1.26-0.45l1.39-0.67l1.21,0.18l1.53,0.67l0.18,0.9l0.67,1.21v1.84l0.54,0.54
		l0.54,0.09l0.76-0.18l0.9-0.72l1.21-0.76l1.39-0.63l1.17-0.67l1.39-0.18l1.48-0.36h0.81l1.12,0.36l0.36,0.67V404.99z"/>
	<path class="st1" d="M310.47,377.77c0,0.52-0.3,0.78-0.91,0.78c-0.26,0-1.23-0.17-2.91-0.52c-3.1-0.64-5.68-0.96-7.74-0.96
		c-4.67,1.42-8.79,4.17-12.36,8.26s-7.66,10.71-12.23,19.86c-7.01,14.05-15.99,22.35-26.94,24.9c2.29,0.35,4.28,0.52,5.96,0.52
		c5.33,0,9.81-1.71,13.44-5.13c3.51-3.31,6.42-6.82,8.74-10.53c0.26-0.41,0.46-0.61,0.61-0.61c0.17,0,0.28,0.06,0.3,0.17
		c0,0.44-1.67,2.68-5,6.74c-3.1,3.8-5.93,6.42-8.48,7.85c-2.55,1.44-5.67,2.15-9.35,2.15c-2.12,0-4.7-0.3-7.74-0.91
		c-1.85,0.61-3.99,0.91-6.39,0.91c-1.68,0-2.52-0.3-2.52-0.91c0-0.7,1.13-1.04,3.39-1.04c1.59,0,3.43,0.15,5.52,0.43
		c4.49-1.07,7.89-2.84,10.19-5.3c2.3-2.46,6.74-9.13,13.32-19.99h-16.73c-7.1,7.47-12.59,12.79-16.47,15.95
		c-9.07,7.36-17.62,11.04-25.64,11.04c-4.58,0-8.47-1.07-11.67-3.22s-4.8-4.75-4.8-7.82c0-1.59,0.48-2.96,1.46-4.08
		c0.97-1.13,2.15-1.69,3.54-1.69c1.88,0,2.82,0.91,2.82,2.74c0,0.96-0.32,1.77-0.97,2.46s-1.4,1.02-2.27,1.02
		c-1.35,0-2.03-0.65-2.03-1.96l0.09-0.87c0.06-0.12,0.09-0.27,0.09-0.48c0-0.29-0.13-0.43-0.39-0.43c-0.29,0-0.58,0.36-0.86,1.09
		c-0.29,0.72-0.43,1.46-0.43,2.22c0,2.84,1.49,5.24,4.47,7.19c2.98,1.96,6.64,2.93,10.99,2.93c6.22,0,13.07-3.06,20.54-9.17
		c1.71-1.36,3.6-3.16,5.69-5.39c4.14-4.35,7.44-7.74,9.9-10.17l1.3-1.35h-8.43l0.52-0.78c2.78,0,5.63,0.03,8.56,0.09
		c8.49-9.44,16.72-16.35,24.71-20.71s16.42-6.57,25.31-6.63c2.06-0.41,3.98-0.61,5.78-0.61
		C308.46,375.81,310.47,376.46,310.47,377.77z M263.95,385.66c0,0.32-0.54,1.09-1.61,2.31c-2.96,3.4-5.76,5.1-8.4,5.1
		c-1.68,0-3.05-0.59-4.11-1.76c-1.06-1.17-1.59-2.72-1.59-4.63c0-1.62,0.96-4.24,2.87-7.87c0.9-1.68,1.35-3.07,1.35-4.17
		c0-1.45-0.8-2.69-2.41-3.72c-1.61-1.03-3.57-1.54-5.89-1.54c-6.63,0-12.78,2.55-18.45,7.65c-5.66,5.1-8.5,10.62-8.5,16.56
		c0,3.01,0.95,5.48,2.85,7.39c1.9,1.91,4.36,2.87,7.37,2.87c3.28,0,6.57-1.2,9.89-3.58c3.32-2.39,5.66-5.27,7.02-8.63
		c0.09-0.29,0.2-0.43,0.35-0.43c0.26,0,0.39,0.15,0.39,0.43c0,0.61-0.51,1.69-1.52,3.24c-1.01,1.55-2.06,2.85-3.13,3.89
		c-3.91,3.85-8.31,5.78-13.18,5.78c-3.31,0-5.96-1.01-7.96-3.04c-2-2.03-3-4.72-3-8.08c0-6.11,2.95-11.78,8.84-16.99
		c5.9-5.21,12.29-7.82,19.19-7.82c3.04,0,5.42,0.75,7.15,2.26c1.72,1.51,2.59,3.58,2.59,6.21c0,1.97-0.7,4.3-2.09,7
		c-1.25,2.46-1.87,4.13-1.87,5c0,2.14,1.28,3.22,3.83,3.22c2.9,0,5.9-2.15,9.01-6.45c0.26-0.35,0.48-0.52,0.65-0.52
		C263.83,385.31,263.95,385.42,263.95,385.66z M296.69,377.25c-7.56,0.38-14.57,2.55-21.03,6.52c-6.46,3.97-13.91,10.63-22.34,19.99
		h16.47c3.71-6.46,8.18-12.25,13.43-17.38C288.38,381.27,292.87,378.23,296.69,377.25z"/>
	<path class="st1" d="M288.06,390.57c-1.13-0.39-2.19-0.59-3.16-0.59c-1.7,0-3.1,0.64-4.2,1.93c-1.1,1.29-1.66,2.92-1.66,4.89
		c0,0.53,0.05,1.07,0.15,1.64h6.39v4.69h-6.39v26.69h-5.57v-26.69h-4.57v-4.69h4.57c0-4,0.99-7.15,2.96-9.43
		c1.97-2.29,4.58-3.43,7.82-3.43c1.62,0,3.36,0.29,5.21,0.88L288.06,390.57z"/>
	<path class="st1" d="M312.61,429.83v-19.72c0-2.34-0.58-4.19-1.73-5.54s-2.77-2.02-4.86-2.02c-1.35,0-2.7,0.4-4.06,1.19
		s-2.4,1.71-3.12,2.77v23.32h-5.57v-44.24h5.57v16.32c0.74-1.15,1.94-2.11,3.59-2.89c1.65-0.77,3.35-1.16,5.11-1.16
		c3.32,0,5.92,1.09,7.81,3.28c1.88,2.19,2.83,5.18,2.83,8.96v19.72H312.61z"/>
	<path class="st1" d="M343.78,426.23c-2.23,2.79-5.63,4.19-10.22,4.19c-2.46,0-4.59-0.89-6.4-2.68s-2.71-4.01-2.71-6.67
		c0-3.18,1.39-5.87,4.17-8.07s6.33-3.3,10.65-3.3c1.17,0,2.5,0.25,3.98,0.76c0-5.08-2.27-7.62-6.8-7.62c-3.48,0-6.15,0.94-8.03,2.81
		l-2.34-4.66c1.05-0.86,2.51-1.6,4.38-2.21s3.65-0.92,5.35-0.92c4.55,0,7.86,1.04,9.92,3.11c2.06,2.07,3.09,5.36,3.09,9.87v11.25
		c0,2.75,0.82,4.59,2.46,5.51v2.78c-2.27,0-3.96-0.32-5.08-0.97S344.27,427.71,343.78,426.23z M343.26,414.42
		c-1.76-0.39-2.99-0.59-3.69-0.59c-2.81,0-5.11,0.72-6.88,2.17c-1.78,1.45-2.67,3.15-2.67,5.13c0,3.26,1.92,4.89,5.77,4.89
		c2.81,0,5.3-1.34,7.47-4.01V414.42z"/>
	<path class="st1" d="M376.89,429.83v-18.25c0-3.34-0.5-5.68-1.51-7.02c-1.01-1.34-2.69-2.01-5.05-2.01c-1.27,0-2.6,0.38-3.98,1.14
		s-2.45,1.7-3.19,2.81v23.32h-5.57v-31.38h3.81l1.76,4.04c1.84-3.09,4.83-4.63,8.99-4.63c6.88,0,10.31,4.18,10.31,12.54v19.42
		H376.89z"/>
	<path class="st1" d="M393.06,429.83v-26.69h-4.31v-4.69h9.87v31.38H393.06z M396.11,386.59c0.96,0,1.77,0.34,2.45,1.01
		s1.01,1.48,1.01,2.42c0,0.96-0.34,1.77-1.01,2.45s-1.49,1.01-2.45,1.01c-0.94,0-1.74-0.34-2.42-1.01s-1.01-1.49-1.01-2.45
		c0-0.96,0.33-1.77,1-2.43C394.34,386.92,395.15,386.59,396.11,386.59z"/>
	<path class="st1" d="M433.93,403.14h-3.6v-4.69h3.6v-2.75c0-2.52-0.45-4.29-1.35-5.32s-2.32-1.54-4.28-1.54
		c-1.91,0-3.44,0.53-4.58,1.58s-1.71,2.37-1.71,3.96c0,2.64,0.98,4.51,2.93,5.63l-1.85,4.69c-2.4-1.45-4.65-2.17-6.74-2.17
		c-3.11,0-4.66,1.12-4.66,3.37c0,1.25,0.6,2.33,1.79,3.24s2.83,1.83,4.92,2.77c2.83,1.31,4.82,2.68,5.96,4.12s1.71,3.24,1.71,5.41
		c0,2.81-0.9,5.01-2.71,6.61s-4.34,2.39-7.6,2.39c-4.1,0-7.59-0.98-10.46-2.93l2.46-4.63c3.14,1.93,5.79,2.9,7.94,2.9
		c3.16,0,4.75-1.34,4.75-4.01c0-1.09-0.38-2.07-1.14-2.92s-2.34-1.84-4.75-2.97c-5.61-2.52-8.41-5.78-8.41-9.79
		c0-2.48,0.92-4.47,2.75-5.98c1.84-1.5,4.3-2.26,7.38-2.26c0.8,0,1.41,0.05,1.82,0.15c-0.68-1.15-1.03-2.71-1.03-4.69
		c0-2.58,1.07-4.75,3.22-6.5s4.83-2.64,8.06-2.64c3.42,0,6.13,0.86,8.14,2.58c2.01,1.72,3.02,4.04,3.02,6.97v4.75h9.29v4.69h-9.29
		v15.82c0,4.53,1.47,6.8,4.42,6.8c1.7,0,3.3-0.36,4.8-1.08l1.38,4.31c-2.15,0.96-4.46,1.44-6.94,1.44c-2.91,0-5.18-0.91-6.81-2.72
		s-2.45-4.29-2.45-7.41V403.14z"/>
	<path class="st1" d="M472.54,426.23c-2.23,2.79-5.63,4.19-10.22,4.19c-2.46,0-4.59-0.89-6.4-2.68s-2.71-4.01-2.71-6.67
		c0-3.18,1.39-5.87,4.17-8.07s6.33-3.3,10.65-3.3c1.17,0,2.5,0.25,3.98,0.76c0-5.08-2.27-7.62-6.8-7.62c-3.48,0-6.15,0.94-8.03,2.81
		l-2.34-4.66c1.05-0.86,2.51-1.6,4.38-2.21s3.65-0.92,5.35-0.92c4.55,0,7.86,1.04,9.92,3.11c2.06,2.07,3.09,5.36,3.09,9.87v11.25
		c0,2.75,0.82,4.59,2.46,5.51v2.78c-2.27,0-3.96-0.32-5.08-0.97S473.03,427.71,472.54,426.23z M472.02,414.42
		c-1.76-0.39-2.99-0.59-3.69-0.59c-2.81,0-5.11,0.72-6.88,2.17c-1.78,1.45-2.67,3.15-2.67,5.13c0,3.26,1.92,4.89,5.77,4.89
		c2.81,0,5.3-1.34,7.47-4.01V414.42z"/>
	<path class="st1" d="M505.65,429.83v-18.25c0-3.34-0.5-5.68-1.51-7.02c-1.01-1.34-2.69-2.01-5.05-2.01c-1.27,0-2.6,0.38-3.98,1.14
		s-2.45,1.7-3.19,2.81v23.32h-5.57v-31.38h3.81l1.76,4.04c1.84-3.09,4.83-4.63,8.99-4.63c6.88,0,10.31,4.18,10.31,12.54v19.42
		H505.65z"/>
</g>
</svg>
